# xmcd
#
# Track frame offsets:
#	150
#	11530
#	27045
#	39870
#	53912
#	66915
#	81427
#	95257
#	106380
#	118332
#	130787
#	143660
#	156660
#	171422
#	181400
#	192370
#	207062
#	215657
#	229230
#	240460
#	252652
#	264835
#	275465
#	286187
#
# Disc length: 4057 seconds
#
# Revision: 1
# Processed by: cddbd v1.4PL0 Copyright (c) Steve Scherf et al.
# Submitted via: audiograbber 1.80
#
DISCID=5e0fd718
DTITLE=Bo Diddley - Bo Diddley Rides Again - In The Spotlight
DYEAR=1900
DGENRE=
TTITLE0=bring it to jerome
TTITLE1=cops and robbers
TTITLE2=mublin' guitar
TTITLE3=oh yeah
TTITLE4=you don't love me ( you don't care )
TTITLE5=down home train
TTITLE6=bo diddley is loose
TTITLE7=help out
TTITLE8=call me ( bo's blues )
TTITLE9=don't let it go
TTITLE10=nursery rhyme
TTITLE11=dearest darling
TTITLE12=gimme gimme
TTITLE13=not guilty
TTITLE14=scuttle bug
TTITLE15=say man
TTITLE16=let me in
TTITLE17=hong kong, mississippi
TTITLE18=craw-dad
TTITLE19=bo's a lumberjack
TTITLE20=walkin' and talkin'
TTITLE21=i need you baby
TTITLE22=you're looking good
TTITLE23=she's alright
EXTD=2 Originals on 1 cd
EXTT0=
EXTT1=
EXTT2=
EXTT3=
EXTT4=
EXTT5=
EXTT6=
EXTT7=
EXTT8=
EXTT9=
EXTT10=
EXTT11=
EXTT12=
EXTT13=
EXTT14=
EXTT15=
EXTT16=
EXTT17=
EXTT18=
EXTT19=
EXTT20=
EXTT21=
EXTT22=
EXTT23=
PLAYORDER=
